<svg width="60" height="60" viewBox="0 0 60 60" fill="none" xmlns="http://www.w3.org/2000/svg">
<path d="M56.525 47.4749L33.825 24.7749C36.15 18.9249 34.95 12.0249 30.225 7.27493C24.475 1.52493 15.525 0.999928 9.15003 5.64993L18.75 15.2749L15.2 18.7999L5.62503 9.22493C0.975025 15.5749 1.50003 24.5499 7.25003 30.2749C11.9 34.9249 18.675 36.1499 24.475 33.9749L47.25 56.7499C48.225 57.7249 49.8 57.7249 50.775 56.7499L56.525 50.9999C57.525 50.0499 57.525 48.4749 56.525 47.4749ZM49.025 51.4749L25.375 27.8249C23.85 28.9499 22.15 29.6249 20.375 29.8749C16.975 30.3749 13.4 29.3499 10.8 26.7499C8.42503 24.3999 7.32503 21.2499 7.50003 18.1499L15.225 25.8749L25.825 15.2749L18.1 7.54993C21.2 7.37493 24.325 8.47493 26.7 10.8249C29.4 13.5249 30.425 17.2499 29.8 20.7249C29.5 22.4999 28.75 24.1499 27.6 25.6249L51.225 49.2499L49.025 51.4749Z" fill="black"/>
</svg>
