<svg width="60" height="60" viewBox="0 0 60 60" fill="none" xmlns="http://www.w3.org/2000/svg">
<path fill-rule="evenodd" clip-rule="evenodd" d="M50 7.5H10C7.25 7.5 5 9.75 5 12.5V47.5C5 50.25 7.25 52.5 10 52.5H50C52.75 52.5 55 50.25 55 47.5V12.5C55 9.75 52.75 7.5 50 7.5ZM50 47.5H10V12.5H50V47.5Z" fill="black"/>
<path fill-rule="evenodd" clip-rule="evenodd" d="M48.525 26.05L44.975 22.5L37.05 30.425L33.525 26.875L30 30.4L37.05 37.5L48.525 26.05Z" fill="black"/>
<path d="M25 17.5H12.5V22.5H25V17.5Z" fill="black"/>
<path d="M25 27.5H12.5V32.5H25V27.5Z" fill="black"/>
<path d="M25 37.5H12.5V42.5H25V37.5Z" fill="black"/>
</svg>
