<svg width="60" height="60" viewBox="0 0 60 60" fill="none" xmlns="http://www.w3.org/2000/svg">
<path d="M30 15C30 13.625 28.875 12.5 27.5 12.5H14.55L16.2 4.55L16.25 3.975C16.25 3.2 15.925 2.5 15.425 1.975L13.45 0L1.1 12.35C0.425 13.025 0 13.975 0 15V31.25C0 33.325 1.675 35 3.75 35H20.625C22.175 35 23.5 34.05 24.075 32.725L29.725 19.5C29.9 19.075 30 18.6 30 18.125V15ZM25 17.825L19.8 30H5V15.525L9.825 10.7L8.4 17.5H25V17.825ZM56.25 25H39.375C37.825 25 36.5 25.95 35.925 27.275L30.275 40.5C30.1 40.925 30 41.4 30 41.875V45C30 46.375 31.125 47.5 32.5 47.5H45.45L43.8 55.45L43.75 56.05C43.75 56.825 44.075 57.525 44.575 58.05L46.55 60L58.9 47.65C59.575 46.975 60 46.025 60 45V28.75C60 26.675 58.325 25 56.25 25ZM55 44.475L50.175 49.3L51.6 42.5H35V42.175L40.2 30H55V44.475Z" fill="black"/>
</svg>
