<svg width="63" height="65" viewBox="0 0 63 65" fill="none" xmlns="http://www.w3.org/2000/svg">
<g clip-path="url(#clip0)">
<path d="M45.3572 37.1951C54.1857 28.9707 62.5 21.2732 62.5 14.6585C62.5 9.2439 58.3572 5 53.0714 5C50.1 5 47.2143 6.43415 45.3572 8.65854C43.4714 6.43415 40.6143 5 37.6429 5C32.3572 5 28.2143 9.2439 28.2143 14.6585C28.2143 21.2732 36.5286 28.9707 45.3572 37.1951ZM37.6429 10.8537C38.9 10.8537 40.1857 11.4683 41.0143 12.4634L45.3572 17.7024L49.7 12.4634C50.5286 11.4683 51.8143 10.8537 53.0714 10.8537C55.1857 10.8537 56.7857 12.4927 56.7857 14.6585C56.7857 17.9366 50.9572 23.9366 45.3572 29.2634C39.7572 23.9366 33.9286 17.9073 33.9286 14.6585C33.9286 12.4927 35.5286 10.8537 37.6429 10.8537Z" fill="black"/>
<path d="M53.9286 45.9756H48.2143C48.2143 42.4634 46.0714 39.3024 42.8714 38.0731L25.2714 31.3414H2.5V63.5365H19.6429V59.3219L39.6429 65L62.5 57.6829V54.7561C62.5 49.8975 58.6714 45.9756 53.9286 45.9756ZM8.21429 57.6829V37.1951H13.9286V57.6829H8.21429ZM39.5571 58.8829L19.6429 53.2341V37.1951H24.2429L40.8714 43.5463C41.8429 43.9268 42.5 44.8926 42.5 45.9756C42.5 45.9756 36.8143 45.8292 35.9286 45.5366L29.1286 43.2244L27.3286 48.7853L34.1286 51.0975C35.5857 51.5951 37.1 51.8585 38.6429 51.8585H53.9286C55.0429 51.8585 56.0429 52.5317 56.5 53.4975L39.5571 58.8829Z" fill="black"/>
</g>
<defs>
<clipPath id="clip0">
<rect width="63" height="65" fill="white"/>
</clipPath>
</defs>
</svg>
